<svg xmlns="http://www.w3.org/2000/svg" width="840" height="180" viewBox="0 0 840 180" fill="none">
  <defs>
    <linearGradient id="g" x1="24" y1="24" x2="156" y2="156" gradientUnits="userSpaceOnUse">
      <stop stop-color="#27D3BC"/>
      <stop offset="1" stop-color="#7C4DFF"/>
    </linearGradient>
  </defs>

  <!-- Mark: circle + signal S -->
  <circle cx="90" cy="90" r="66" fill="rgba(255,255,255,0.05)" stroke="rgba(255,255,255,0.10)"/>
  <path d="M120 58c-10-10-24-16-40-16-22 0-38 10-38 26 0 14 11 21 31 25l18 3c12 2 17 6 17 12 0 9-10 14-24 14-14 0-25-5-32-14" stroke="url(#g)" stroke-width="14" stroke-linecap="round" stroke-linejoin="round"/>
  <path d="M52 120c8 11 23 18 40 18 24 0 40-11 40-28" stroke="#FAFBFF" stroke-width="10" stroke-linecap="round" opacity="0.92"/>

  <!-- Wordmark -->
  <g transform="translate(190 0)">
    <text x="0" y="112" fill="#FAFBFF" font-family="Inter, ui-sans-serif, system-ui, -apple-system, Segoe UI, Roboto, Helvetica, Arial" font-size="72" font-weight="800" letter-spacing="-0.02em">HRSignal</text>
    <text x="2" y="146" fill="rgba(250,251,255,0.72)" font-family="Inter, ui-sans-serif, system-ui, -apple-system, Segoe UI, Roboto, Helvetica, Arial" font-size="18" font-weight="600" letter-spacing="0.02em">Shortlists you can trust</text>
  </g>
</svg>
