<?xml version="1.0" encoding="UTF-8"?>
<svg xmlns="http://www.w3.org/2000/svg" width="256" height="256" viewBox="0 0 256 256" fill="none" role="img" aria-label="HRSignal mark">
  <defs>
    <linearGradient id="g" x1="0" y1="0" x2="1" y2="1">
      <stop offset="0" stop-color="#7441F2"/>
      <stop offset="1" stop-color="#825AE0"/>
    </linearGradient>
  </defs>
  <rect x="16" y="16" width="224" height="224" rx="56" fill="#121634"/>
  <rect x="16" y="16" width="224" height="224" rx="56" stroke="rgba(255,255,255,0.10)"/>

  <!-- HS monogram -->
  <path d="M86 88c0-6 4-10 10-10h14c6 0 10 4 10 10v34h40V88c0-6 4-10 10-10h14c6 0 10 4 10 10v80c0 6-4 10-10 10h-14c-6 0-10-4-10-10v-34h-40v34c0 6-4 10-10 10H96c-6 0-10-4-10-10V88z" fill="url(#g)"/>
  <path d="M78 172c10 10 26 16 50 16 32 0 54-12 54-34 0-18-12-28-38-32l-18-3c-10-2-14-5-14-10 0-7 8-12 22-12 13 0 24 4 32 10l10-12c-10-10-25-16-42-16-30 0-50 13-50 33 0 17 11 27 36 31l18 3c11 2 16 5 16 11 0 7-9 12-24 12-17 0-30-5-40-14l-14 12z" fill="#F5F7FF" opacity="0.92"/>
</svg>
