<svg xmlns="http://www.w3.org/2000/svg" width="240" height="64" viewBox="0 0 240 64" fill="none">
  <g>
    <rect x="4" y="6" width="52" height="52" rx="14" fill="#0B1220"/>
    <path d="M20 40c6-10 14-10 20 0" stroke="#7C3AED" stroke-width="4" stroke-linecap="round"/>
    <path d="M20 24h8" stroke="#F9FAFB" stroke-width="4" stroke-linecap="round"/>
    <path d="M32 24h8" stroke="#F9FAFB" stroke-width="4" stroke-linecap="round" opacity="0.9"/>
  </g>
  <g fill="#F9FAFB">
    <path d="M76.8 42V22.2h8.4c1.8 0 3.3.3 4.6.9 1.3.6 2.3 1.4 3 2.4.7 1 1 2.2 1 3.6 0 1.3-.3 2.5-1 3.5-.7 1-1.7 1.8-3 2.4-1.3.6-2.8.9-4.6.9h-5.3V42h-3.1Zm3.1-9.2h5.2c1.8 0 3.2-.4 4.2-1.1 1-.7 1.5-1.7 1.5-3 0-1.3-.5-2.3-1.5-3-1-.7-2.4-1.1-4.2-1.1h-5.2v8.2Z"/>
    <path d="M98.6 42V22.2h3.1V42h-3.1Z"/>
    <path d="M114.5 42.3c-1.9 0-3.6-.4-5.1-1.2-1.5-.8-2.7-2-3.6-3.5-.9-1.5-1.3-3.3-1.3-5.3 0-2 .4-3.8 1.3-5.3.9-1.5 2.1-2.7 3.6-3.5 1.5-.8 3.2-1.2 5.1-1.2 1.5 0 2.9.2 4.1.7 1.2.5 2.2 1.2 3 2.1.8.9 1.3 2 1.6 3.3h-3.2c-.3-1-.9-1.8-1.8-2.5-.9-.6-2.1-1-3.6-1-1.3 0-2.5.3-3.5.9-1 .6-1.9 1.5-2.4 2.7-.6 1.2-.9 2.6-.9 4.3 0 1.7.3 3.1.9 4.3.6 1.2 1.4 2.1 2.4 2.7 1 .6 2.2.9 3.5.9 1.5 0 2.7-.3 3.6-1 1-.6 1.6-1.5 1.8-2.6h3.2c-.3 1.3-.8 2.4-1.6 3.3-.8.9-1.8 1.6-3 2.1-1.2.5-2.6.7-4.1.7Z"/>
    <path d="M126.8 42V22.2h3.1v9h10.8v-9h3.1V42h-3.1V34h-10.8V42h-3.1Z"/>
    <path d="M156.7 42.3c-2.6 0-4.7-.6-6.2-1.7-1.5-1.1-2.3-2.7-2.5-4.8h3.1c.2 1.2.7 2.1 1.6 2.7.9.6 2.2.9 3.9.9 1.6 0 2.9-.3 3.7-.9.9-.6 1.3-1.4 1.3-2.4 0-.7-.2-1.2-.6-1.6-.4-.4-1-.7-1.7-.9-.7-.2-1.6-.4-2.6-.6l-1.3-.2c-1.3-.2-2.5-.5-3.5-.9-1-.4-1.8-1-2.4-1.7-.6-.7-.9-1.7-.9-2.9 0-1.2.3-2.2 1-3.1.7-.9 1.6-1.6 2.8-2.1 1.2-.5 2.7-.7 4.4-.7 2.4 0 4.2.5 5.6 1.6 1.4 1 2.2 2.5 2.4 4.3h-3.1c-.2-1-.7-1.8-1.5-2.3-.8-.5-2-.8-3.5-.8-1.4 0-2.6.3-3.4.8-.8.5-1.2 1.2-1.2 2.1 0 .6.2 1.1.6 1.4.4.4.9.7 1.6.9.7.2 1.5.4 2.4.5l1.3.2c1.4.2 2.7.5 3.8.9 1.1.4 2 1 2.6 1.8.6.8 1 1.9 1 3.2 0 1.3-.4 2.5-1.1 3.5-.7 1-1.7 1.7-3 2.3-1.3.5-2.8.8-4.6.8Z"/>
  </g>
</svg>
