<svg xmlns="http://www.w3.org/2000/svg" width="720" height="180" viewBox="0 0 720 180" role="img" aria-label="HRSignal logo">
  <defs>
    <style>
      .bg{fill:none}
      .slate{fill:#0F172A}
      .emerald{stroke:#10B981}
      .white{fill:#F8FAFC}
      .muted{fill:#F8FAFC;opacity:.78}
    </style>
  </defs>
  <rect class="bg" width="720" height="180"/>

  <!-- Mark -->
  <g transform="translate(28 28)">
    <rect x="0" y="0" width="124" height="124" rx="30" class="slate"/>

    <!-- Signal wave (emerald) -->
    <path d="M28 78c18 18 50 18 68 0 12-12 12-30 0-42-18-18-50-18-68 0" fill="none" class="emerald" stroke-width="6" stroke-linecap="round" opacity="0.96"/>
    <path d="M34 76c14 14 38 14 52 0 10-10 10-24 0-34-14-14-38-14-52 0" fill="none" class="emerald" stroke-width="4" stroke-linecap="round" opacity="0.55"/>

    <!-- HR (white) -->
    <g fill="none" stroke="#F8FAFC" stroke-width="5" stroke-linecap="round" stroke-linejoin="round" opacity="0.98">
      <path d="M34 44v40M34 64h20M54 44v40"/>
      <path d="M64 84V44h16c8 0 14 5 14 12 0 6-4 10-10 12l10 10"/>
    </g>

    <!-- Nodes -->
    <circle cx="28" cy="78" r="4" fill="#10B981"/>
    <circle cx="96" cy="78" r="4" fill="#10B981"/>
  </g>

  <!-- Wordmark -->
  <g transform="translate(178 58)">
    <text x="0" y="44" font-family="Inter, ui-sans-serif, system-ui, -apple-system, Segoe UI, Roboto, Helvetica, Arial" font-size="56" font-weight="900" letter-spacing="-0.6" class="white">HRSignal</text>
    <text x="0" y="74" font-family="Inter, ui-sans-serif, system-ui, -apple-system, Segoe UI, Roboto, Helvetica, Arial" font-size="16" font-weight="600" class="muted">Signal-led shortlists for HR software — evidence, freshness, and fit</text>
  </g>
</svg>
