<?xml version="1.0" encoding="UTF-8"?>
<svg xmlns="http://www.w3.org/2000/svg" width="520" height="120" viewBox="0 0 520 120" fill="none" role="img" aria-label="HRSignal">
  <defs>
    <linearGradient id="g" x1="0" y1="0" x2="1" y2="1">
      <stop offset="0" stop-color="#7441F2"/>
      <stop offset="1" stop-color="#825AE0"/>
    </linearGradient>
  </defs>

  <!-- Mark -->
  <g transform="translate(12 12)">
    <rect x="0" y="0" width="96" height="96" rx="24" fill="#121634"/>
    <rect x="0" y="0" width="96" height="96" rx="24" stroke="rgba(255,255,255,0.10)"/>
    <path d="M26 28c0-3 2-5 5-5h6c3 0 5 2 5 5v16h22V28c0-3 2-5 5-5h6c3 0 5 2 5 5v40c0 3-2 5-5 5h-6c-3 0-5-2-5-5V52H42v16c0 3-2 5-5 5h-6c-3 0-5-2-5-5V28z" fill="url(#g)"/>
    <path d="M22 76c6 6 15 9 29 9 18 0 31-7 31-19 0-10-7-16-21-18l-10-2c-6-1-8-3-8-6 0-4 5-7 13-7 8 0 14 2 19 6l6-7c-6-6-14-9-25-9-17 0-29 7-29 18 0 10 7 16 20 18l10 2c7 1 10 3 10 6 0 4-5 7-14 7-10 0-18-3-24-8l-8 7z" fill="#F5F7FF" opacity="0.92"/>
  </g>

  <!-- Wordmark -->
  <text x="128" y="74" font-family="Inter, ui-sans-serif, system-ui, -apple-system, Segoe UI, Roboto, Helvetica, Arial" font-size="46" font-weight="700" letter-spacing="-0.6" fill="#F5F7FF">HR</text>
  <text x="180" y="74" font-family="Inter, ui-sans-serif, system-ui, -apple-system, Segoe UI, Roboto, Helvetica, Arial" font-size="46" font-weight="700" letter-spacing="-0.6" fill="url(#g)">Signal</text>
</svg>
